<?xml version="1.0" standalone="no"?>
<!DOCTYPE svg PUBLIC "-//W3C//DTD SVG 20010904//EN"
 "http://www.w3.org/TR/2001/REC-SVG-20010904/DTD/svg10.dtd">
<svg version="1.0" xmlns="http://www.w3.org/2000/svg"
 width="152.000000pt" height="152.000000pt" viewBox="0 0 152.000000 152.000000"
 preserveAspectRatio="xMidYMid meet">
<metadata>
Created by potrace 1.11, written by Peter Selinger 2001-2013
</metadata>
<g transform="translate(0.000000,152.000000) scale(0.100000,-0.100000)"
fill="#000000" stroke="none">
<path d="M605 1505 c-153 -33 -272 -100 -385 -214 -69 -70 -95 -105 -133 -181
-68 -137 -87 -217 -82 -365 1 -66 6 -131 10 -145 4 -14 9 -36 12 -50 2 -14 28
-72 56 -130 45 -92 62 -116 141 -195 116 -115 235 -180 391 -213 17 -3 84 -6
150 -7 144 0 211 16 340 79 254 126 412 384 413 676 0 132 -22 223 -85 350
-81 162 -241 303 -416 366 -122 44 -290 56 -412 29z"/>
</g>
</svg>
